<svg width="15" height="15" viewBox="0 0 15 15" fill="none" xmlns="http://www.w3.org/2000/svg">
<g clip-path="url(#clip0)">
<path d="M13.125 7.89757e-07C13.6223 8.3323e-07 14.0992 0.197545 14.4508 0.549176C14.8025 0.900807 15 1.37772 15 1.875L15 13.125C15 13.6223 14.8025 14.0992 14.4508 14.4508C14.0992 14.8025 13.6223 15 13.125 15L1.875 15C1.37772 15 0.900805 14.8025 0.549174 14.4508C0.197544 14.0992 -8.3323e-07 13.6223 -7.89757e-07 13.125L1.9375e-07 1.875C2.37223e-07 1.37772 0.197545 0.900805 0.549175 0.549175C0.900806 0.197544 1.37772 -2.37223e-07 1.875 -1.9375e-07L13.125 7.89757e-07ZM7.03125 4.21875L7.03125 9.64969L5.01938 7.63687C4.97579 7.59329 4.92405 7.55872 4.86711 7.53513C4.81017 7.51155 4.74913 7.49941 4.6875 7.49941C4.62587 7.49941 4.56483 7.51155 4.50789 7.53513C4.45095 7.55872 4.39921 7.59329 4.35562 7.63687C4.31204 7.68046 4.27747 7.7322 4.25388 7.78914C4.2303 7.84608 4.21816 7.90711 4.21816 7.96875C4.21816 8.03038 4.2303 8.09142 4.25388 8.14836C4.27747 8.2053 4.31204 8.25704 4.35562 8.30062L7.16812 11.1131C7.21167 11.1568 7.2634 11.1914 7.32034 11.215C7.37729 11.2387 7.43834 11.2508 7.5 11.2508C7.56166 11.2508 7.62271 11.2387 7.67966 11.215C7.73661 11.1914 7.78833 11.1568 7.83187 11.1131L10.6444 8.30063C10.7324 8.21261 10.7818 8.09323 10.7818 7.96875C10.7818 7.84427 10.7324 7.72489 10.6444 7.63688C10.5564 7.54886 10.437 7.49941 10.3125 7.49941C10.188 7.49941 10.0686 7.54886 9.98063 7.63687L7.96875 9.64969L7.96875 4.21875C7.96875 4.09443 7.91936 3.9752 7.83146 3.88729C7.74355 3.79939 7.62432 3.75 7.5 3.75C7.37568 3.75 7.25645 3.79939 7.16854 3.88729C7.08064 3.9752 7.03125 4.09443 7.03125 4.21875Z" fill="#1F1F1F"/>
</g>
<defs>
<clipPath id="clip0">
<rect width="15" height="15" fill="white" transform="translate(15 15) rotate(-180)"/>
</clipPath>
</defs>
</svg>
