<svg width="55" height="54" viewBox="0 0 55 54" fill="none" xmlns="http://www.w3.org/2000/svg">
<path d="M10.1554 8.9H48.2499C48.7398 8.90024 49.22 9.03672 49.6368 9.29418C50.0536 9.55164 50.3906 9.91994 50.6102 10.3579C50.8297 10.7959 50.9231 11.2863 50.88 11.7743C50.839 12.2376 50.6765 12.6814 50.4095 13.0611H50.4083L50.3633 13.1211L41.9883 24.2877L41.9878 24.2884C41.7432 24.6183 41.4247 24.8862 41.0578 25.0705C40.6909 25.2549 40.2858 25.3506 39.8752 25.35H39.875H17.1384L10.1554 8.9ZM48.4 36.6667V36.5167H48.25H17.5416C16.841 36.5167 16.1691 36.2383 15.6737 35.7429C15.1822 35.2514 14.9044 34.5862 14.9 33.8916L15.1715 32.697L17.261 28.4417H39.8749C39.8749 28.4417 39.8749 28.4417 39.875 28.4417C40.7974 28.4421 41.7062 28.2197 42.5243 27.7935C43.3415 27.3677 44.044 26.7509 44.572 25.9956L52.7037 15.1514C53.3851 14.3106 53.8146 13.2941 53.9426 12.2194C54.0706 11.1438 53.8913 10.0539 53.4254 9.07591C52.9596 8.09797 52.2262 7.27201 51.3102 6.69372C50.3943 6.11542 49.3332 5.80844 48.25 5.80833H8.84437L6.51303 0.316387L6.47424 0.225H6.37496H0.791626H0.641626V0.375V3.16667V3.31667H0.791626H4.4276L14.5014 27.0478L12.5231 31.0978C12.0402 31.9699 11.7931 32.9529 11.8061 33.9498C11.8191 34.948 12.0925 35.9255 12.5993 36.7856C13.1061 37.6456 13.8286 38.3585 14.6955 38.8536C15.5623 39.3486 16.5434 39.6088 17.5416 39.6083C17.5417 39.6083 17.5417 39.6083 17.5417 39.6083H48.25H48.4V39.4583V36.6667ZM46.7207 43.7793C45.6455 42.704 44.1872 42.1 42.6666 42.1C41.146 42.1 39.6878 42.704 38.6125 43.7793C37.5373 44.8545 36.9333 46.3128 36.9333 47.8333C36.9333 49.3539 37.5373 50.8122 38.6125 51.8874C39.6878 52.9626 41.146 53.5667 42.6666 53.5667C44.1872 53.5667 45.6455 52.9626 46.7207 51.8874C47.7959 50.8122 48.4 49.3539 48.4 47.8333C48.4 46.3128 47.7959 44.8545 46.7207 43.7793ZM40.7987 45.9654C41.2941 45.47 41.966 45.1917 42.6666 45.1917C43.3672 45.1917 44.0392 45.47 44.5346 45.9654C45.03 46.4608 45.3083 47.1327 45.3083 47.8333C45.3083 48.5339 45.03 49.2059 44.5346 49.7013C44.0392 50.1967 43.3672 50.475 42.6666 50.475C41.966 50.475 41.2941 50.1967 40.7987 49.7013C40.3033 49.2059 40.025 48.5339 40.025 47.8333C40.025 47.1327 40.3033 46.4608 40.7987 45.9654ZM21.5957 43.7793C20.5205 42.704 19.0622 42.1 17.5416 42.1C16.0211 42.1 14.5628 42.704 13.4875 43.7793C12.4123 44.8545 11.8083 46.3128 11.8083 47.8333C11.8083 49.3539 12.4123 50.8122 13.4875 51.8874C14.5628 52.9626 16.0211 53.5667 17.5416 53.5667C19.0622 53.5667 20.5205 52.9626 21.5957 51.8874C22.6709 50.8122 23.275 49.3539 23.275 47.8333C23.275 46.3128 22.6709 44.8545 21.5957 43.7793ZM15.6737 45.9654C16.1691 45.47 16.841 45.1917 17.5416 45.1917C18.2422 45.1917 18.9142 45.47 19.4096 45.9654C19.905 46.4608 20.1833 47.1327 20.1833 47.8333C20.1833 48.5339 19.905 49.2059 19.4096 49.7013C18.9142 50.1967 18.2422 50.475 17.5416 50.475C16.841 50.475 16.1691 50.1967 15.6737 49.7013C15.1783 49.2059 14.9 48.5339 14.9 47.8333C14.9 47.1327 15.1783 46.4608 15.6737 45.9654Z" fill="#F5F5F5" stroke="#F5F5F5" stroke-width="0.3"/>
</svg>
