<svg width="54" height="54" viewBox="0 0 54 54" fill="none" xmlns="http://www.w3.org/2000/svg">
<path d="M42.6666 42.25C44.1474 42.25 45.5676 42.8382 46.6146 43.8853C47.6617 44.9324 48.25 46.3525 48.25 47.8333C48.25 49.3141 47.6617 50.7343 46.6146 51.7813C45.5676 52.8284 44.1474 53.4167 42.6666 53.4167C41.1858 53.4167 39.7657 52.8284 38.7186 51.7813C37.6715 50.7343 37.0833 49.3141 37.0833 47.8333C37.0833 46.3525 37.6715 44.9324 38.7186 43.8853C39.7657 42.8382 41.1858 42.25 42.6666 42.25ZM42.6666 45.0417C41.9262 45.0417 41.2162 45.3358 40.6926 45.8593C40.1691 46.3829 39.875 47.0929 39.875 47.8333C39.875 48.5737 40.1691 49.2838 40.6926 49.8073C41.2162 50.3309 41.9262 50.625 42.6666 50.625C43.407 50.625 44.1171 50.3309 44.6406 49.8073C45.1642 49.2838 45.4583 48.5737 45.4583 47.8333C45.4583 47.0929 45.1642 46.3829 44.6406 45.8593C44.1171 45.3358 43.407 45.0417 42.6666 45.0417ZM17.5416 42.25C19.0224 42.25 20.4426 42.8382 21.4896 43.8853C22.5367 44.9324 23.125 46.3525 23.125 47.8333C23.125 49.3141 22.5367 50.7343 21.4896 51.7813C20.4426 52.8284 19.0224 53.4167 17.5416 53.4167C16.0608 53.4167 14.6407 52.8284 13.5936 51.7813C12.5465 50.7343 11.9583 49.3141 11.9583 47.8333C11.9583 46.3525 12.5465 44.9324 13.5936 43.8853C14.6407 42.8382 16.0608 42.25 17.5416 42.25V42.25ZM17.5416 45.0417C16.8012 45.0417 16.0912 45.3358 15.5676 45.8593C15.0441 46.3829 14.75 47.0929 14.75 47.8333C14.75 48.5737 15.0441 49.2838 15.5676 49.8073C16.0912 50.3309 16.8012 50.625 17.5416 50.625C18.282 50.625 18.9921 50.3309 19.5156 49.8073C20.0392 49.2838 20.3333 48.5737 20.3333 47.8333C20.3333 47.0929 20.0392 46.3829 19.5156 45.8593C18.9921 45.3358 18.282 45.0417 17.5416 45.0417ZM48.25 8.75H9.92875L17.0391 25.5H39.875C40.3091 25.5007 40.7373 25.3995 41.1251 25.2046C41.513 25.0097 41.8498 24.7265 42.1083 24.3777L50.4833 13.2111H50.4861C50.7957 12.7961 50.9838 12.3032 51.0294 11.7875C51.075 11.2718 50.9763 10.7535 50.7443 10.2907C50.5123 9.82785 50.1561 9.43864 49.7156 9.16656C49.2752 8.89448 48.7677 8.75026 48.25 8.75V8.75ZM39.875 28.2917H17.1675L15.0291 32.6467L14.75 33.875C14.75 34.6154 15.0441 35.3255 15.5676 35.849C16.0912 36.3725 16.8012 36.6667 17.5416 36.6667H48.25V39.4583H17.5416C16.5695 39.4588 15.614 39.2054 14.7699 38.7233C13.9257 38.2412 13.222 37.547 12.7285 36.7094C12.235 35.8718 11.9687 34.9199 11.9561 33.9479C11.9434 32.9758 12.1847 32.0172 12.6562 31.1671L14.6662 27.0522L4.52688 3.16667H0.791626V0.375H6.37496L8.74508 5.95833H48.25C49.3049 5.95843 50.3381 6.25738 51.2301 6.82055C52.1221 7.38372 52.8363 8.18807 53.29 9.14042C53.7437 10.0928 53.9183 11.1542 53.7936 12.2017C53.6689 13.2492 53.25 14.2399 52.5854 15.0592L44.4505 25.9076C43.9362 26.644 43.2516 27.2454 42.455 27.6605C41.6583 28.0755 40.7732 28.2921 39.875 28.2917V28.2917Z" fill="#1F1F1F"/>
</svg>
