<svg width="54" height="54" viewBox="0 0 54 54" fill="none" xmlns="http://www.w3.org/2000/svg">
<path d="M37.8844 10.125C39.1131 10.124 40.3295 10.3682 41.4625 10.8434C42.5955 11.3187 43.6223 12.0153 44.4825 12.8925C46.2551 14.692 47.2487 17.1166 47.2487 19.6425C47.2487 22.1684 46.2551 24.593 44.4825 26.3925L27 44.0944L9.51755 26.3925C7.74497 24.593 6.75138 22.1684 6.75138 19.6425C6.75138 17.1166 7.74497 14.692 9.51755 12.8925C10.3783 12.0159 11.4051 11.3197 12.538 10.8444C13.6709 10.3691 14.8871 10.1243 16.1157 10.1243C17.3442 10.1243 18.5604 10.3691 19.6933 10.8444C20.8262 11.3197 21.853 12.0159 22.7138 12.8925L27 17.28L31.2694 12.9263C32.1271 12.0386 33.1549 11.333 34.2915 10.8517C35.4281 10.3704 36.6501 10.1232 37.8844 10.125V10.125ZM37.8844 6.75C36.2064 6.74858 34.545 7.0822 32.9976 7.73129C31.4502 8.38038 30.048 9.33188 28.8732 10.53L27 12.42L25.1269 10.53C23.9507 9.33404 22.5481 8.38419 21.001 7.73583C19.4539 7.08746 17.7932 6.75354 16.1157 6.75354C14.4382 6.75354 12.7775 7.08746 11.2304 7.73583C9.68327 8.38419 8.2807 9.33404 7.10442 10.53C4.71134 12.9661 3.37048 16.2445 3.37048 19.6594C3.37048 23.0743 4.71134 26.3526 7.10442 28.7888L27 48.9375L46.8957 28.7888C49.2888 26.3526 50.6296 23.0743 50.6296 19.6594C50.6296 16.2445 49.2888 12.9661 46.8957 10.53C45.7197 9.3334 44.3173 8.3829 42.7701 7.73392C41.223 7.08494 39.5622 6.75047 37.8844 6.75V6.75Z" fill="#1F1F1F"/>
</svg>
