<svg width="54" height="22" viewBox="0 0 54 22" fill="none" xmlns="http://www.w3.org/2000/svg">
<path d="M7.092 17.216C5.292 17.216 3.888 16.718 2.88 15.722C1.884 14.726 1.386 13.304 1.386 11.456V4.4H4.302V11.348C4.302 13.604 5.238 14.732 7.11 14.732C8.022 14.732 8.718 14.462 9.198 13.922C9.678 13.37 9.918 12.512 9.918 11.348V4.4H12.798V11.456C12.798 13.304 12.294 14.726 11.286 15.722C10.29 16.718 8.892 17.216 7.092 17.216ZM25.3455 3.644V17H22.6635V15.884C21.9675 16.724 20.9595 17.144 19.6395 17.144C18.7275 17.144 17.8995 16.94 17.1555 16.532C16.4235 16.124 15.8475 15.542 15.4275 14.786C15.0075 14.03 14.7975 13.154 14.7975 12.158C14.7975 11.162 15.0075 10.286 15.4275 9.53C15.8475 8.774 16.4235 8.192 17.1555 7.784C17.8995 7.376 18.7275 7.172 19.6395 7.172C20.8755 7.172 21.8415 7.562 22.5375 8.342V3.644H25.3455ZM20.1255 14.84C20.8335 14.84 21.4215 14.6 21.8895 14.12C22.3575 13.628 22.5915 12.974 22.5915 12.158C22.5915 11.342 22.3575 10.694 21.8895 10.214C21.4215 9.722 20.8335 9.476 20.1255 9.476C19.4055 9.476 18.8115 9.722 18.3435 10.214C17.8755 10.694 17.6415 11.342 17.6415 12.158C17.6415 12.974 17.8755 13.628 18.3435 14.12C18.8115 14.6 19.4055 14.84 20.1255 14.84ZM27.9444 7.316H30.7524V17H27.9444V7.316ZM29.3484 5.966C28.8324 5.966 28.4124 5.816 28.0884 5.516C27.7644 5.216 27.6024 4.844 27.6024 4.4C27.6024 3.956 27.7644 3.584 28.0884 3.284C28.4124 2.984 28.8324 2.834 29.3484 2.834C29.8644 2.834 30.2844 2.978 30.6084 3.266C30.9324 3.554 31.0944 3.914 31.0944 4.346C31.0944 4.814 30.9324 5.204 30.6084 5.516C30.2844 5.816 29.8644 5.966 29.3484 5.966ZM38.0385 17.144C37.0065 17.144 36.0765 16.934 35.2485 16.514C34.4325 16.082 33.7905 15.488 33.3225 14.732C32.8665 13.976 32.6385 13.118 32.6385 12.158C32.6385 11.198 32.8665 10.34 33.3225 9.584C33.7905 8.828 34.4325 8.24 35.2485 7.82C36.0765 7.388 37.0065 7.172 38.0385 7.172C39.0585 7.172 39.9465 7.388 40.7025 7.82C41.4705 8.24 42.0285 8.846 42.3765 9.638L40.1985 10.808C39.6945 9.92 38.9685 9.476 38.0205 9.476C37.2885 9.476 36.6825 9.716 36.2025 10.196C35.7225 10.676 35.4825 11.33 35.4825 12.158C35.4825 12.986 35.7225 13.64 36.2025 14.12C36.6825 14.6 37.2885 14.84 38.0205 14.84C38.9805 14.84 39.7065 14.396 40.1985 13.508L42.3765 14.696C42.0285 15.464 41.4705 16.064 40.7025 16.496C39.9465 16.928 39.0585 17.144 38.0385 17.144ZM53.3562 12.194C53.3562 12.23 53.3382 12.482 53.3022 12.95H45.9762C46.1082 13.55 46.4202 14.024 46.9122 14.372C47.4042 14.72 48.0162 14.894 48.7482 14.894C49.2522 14.894 49.6962 14.822 50.0802 14.678C50.4762 14.522 50.8422 14.282 51.1782 13.958L52.6722 15.578C51.7602 16.622 50.4282 17.144 48.6762 17.144C47.5842 17.144 46.6182 16.934 45.7782 16.514C44.9382 16.082 44.2902 15.488 43.8342 14.732C43.3782 13.976 43.1502 13.118 43.1502 12.158C43.1502 11.21 43.3722 10.358 43.8162 9.602C44.2722 8.834 44.8902 8.24 45.6702 7.82C46.4622 7.388 47.3442 7.172 48.3162 7.172C49.2642 7.172 50.1222 7.376 50.8902 7.784C51.6582 8.192 52.2582 8.78 52.6902 9.548C53.1342 10.304 53.3562 11.186 53.3562 12.194ZM48.3342 9.296C47.6982 9.296 47.1642 9.476 46.7322 9.836C46.3002 10.196 46.0362 10.688 45.9402 11.312H50.7102C50.6142 10.7 50.3502 10.214 49.9182 9.854C49.4862 9.482 48.9582 9.296 48.3342 9.296Z" fill="#FCFCFC"/>
<rect y="19" width="46" height="2" fill="#FCFCFC"/>
<rect x="52" y="19" width="2" height="2" fill="#FCFCFC"/>
<rect x="48" y="19" width="2" height="2" fill="#FCFCFC"/>
</svg>
