<svg width="54" height="36" viewBox="0 0 54 36" fill="none" xmlns="http://www.w3.org/2000/svg">
<path d="M51.15 15H2.85C1.27599 15 0 16.276 0 17.85V18.15C0 19.724 1.27599 21 2.85 21H51.15C52.724 21 54 19.724 54 18.15V17.85C54 16.276 52.724 15 51.15 15Z" fill="#F2F2F2"/>
<path d="M51.15 30H2.85C1.27599 30 0 31.276 0 32.85V33.15C0 34.724 1.27599 36 2.85 36H51.15C52.724 36 54 34.724 54 33.15V32.85C54 31.276 52.724 30 51.15 30Z" fill="#F2F2F2"/>
<path d="M51.15 0H2.85C1.27599 0 0 1.27599 0 2.85V3.15C0 4.72401 1.27599 6 2.85 6H51.15C52.724 6 54 4.72401 54 3.15V2.85C54 1.27599 52.724 0 51.15 0Z" fill="#F2F2F2"/>
</svg>
