<svg width="221" height="221" viewBox="0 0 221 221" fill="none" xmlns="http://www.w3.org/2000/svg">
<path d="M200.281 110.5C200.281 60.9174 160.083 20.7188 110.5 20.7188C60.9174 20.7188 20.7188 60.9174 20.7188 110.5C20.7188 160.083 60.9174 200.281 110.5 200.281C160.083 200.281 200.281 160.083 200.281 110.5ZM91.5078 142.502V78.4982C91.5088 77.1866 91.8833 75.9024 92.5874 74.7959C93.2915 73.6893 94.2962 72.8061 95.4839 72.2497C96.6715 71.6932 97.9931 71.4864 99.294 71.6535C100.595 71.8206 101.821 72.3547 102.83 73.1933L141.285 105.191C142.064 105.839 142.691 106.651 143.121 107.568C143.551 108.486 143.774 109.487 143.774 110.5C143.774 111.513 143.551 112.514 143.121 113.432C142.691 114.349 142.064 115.161 141.285 115.809L102.83 147.807C101.821 148.645 100.595 149.179 99.294 149.346C97.9931 149.514 96.6715 149.307 95.4839 148.75C94.2962 148.194 93.2915 147.311 92.5874 146.204C91.8833 145.098 91.5088 143.813 91.5078 142.502V142.502Z" fill="#1F1F1F"/>
</svg>
