<svg width="42" height="40" viewBox="0 0 42 40" fill="none" xmlns="http://www.w3.org/2000/svg">
<path d="M41.3001 37.4035C38.3846 32.382 33.7155 28.6157 28.1907 26.8289C30.8375 25.2541 32.894 22.8539 34.0445 19.997C35.195 17.1402 35.3758 13.9846 34.5591 11.0151C33.7425 8.04549 31.9736 5.42613 29.524 3.55929C27.0745 1.69246 24.0798 0.681396 21 0.681396C17.9202 0.681396 14.9256 1.69246 12.476 3.55929C10.0265 5.42613 8.25755 8.04549 7.4409 11.0151C6.62425 13.9846 6.80506 17.1402 7.95554 19.997C9.10603 22.8539 11.1626 25.2541 13.8093 26.8289C8.28462 28.6157 3.61555 32.3818 0.699923 37.4031C0.597161 37.5807 0.53039 37.7769 0.503421 37.9803C0.476453 38.1837 0.489816 38.3904 0.542747 38.5887C0.595679 38.787 0.687142 38.9729 0.811914 39.1358C0.936686 39.2987 1.09232 39.4354 1.26994 39.5382C1.44756 39.6409 1.64368 39.7077 1.8471 39.7347C2.05053 39.7616 2.25727 39.7483 2.45553 39.6954C2.65379 39.6424 2.83968 39.551 3.00259 39.4262C3.1655 39.3014 3.30224 39.1458 3.405 38.9682C5.18877 35.8803 7.75378 33.3162 10.8423 31.5335C13.9309 29.7509 17.4341 28.8124 21.0002 28.8124C24.5663 28.8125 28.0696 29.751 31.1581 31.5337C34.2466 33.3165 36.8115 35.8806 38.5952 38.9686C38.698 39.1462 38.8347 39.3018 38.9976 39.4265C39.1606 39.5513 39.3464 39.6428 39.5447 39.6957C39.7429 39.7486 39.9497 39.762 40.1531 39.735C40.3565 39.708 40.5526 39.6412 40.7302 39.5385C40.9078 39.4357 41.0634 39.299 41.1882 39.1361C41.313 38.9732 41.4044 38.7873 41.4573 38.589C41.5102 38.3908 41.5236 38.184 41.4966 37.9806C41.4697 37.7772 41.4029 37.5811 41.3001 37.4035ZM10.0624 14.75C10.0624 12.5868 10.7039 10.4721 11.9057 8.67345C13.1076 6.87479 14.8158 5.4729 16.8143 4.64507C18.8129 3.81723 21.0121 3.60063 23.1337 4.02266C25.2554 4.44468 27.2043 5.48638 28.7339 7.01602C30.2635 8.54565 31.3052 10.4945 31.7273 12.6162C32.1493 14.7379 31.9327 16.937 31.1049 18.9356C30.277 20.9342 28.8751 22.6424 27.0765 23.8442C25.2778 25.046 23.1632 25.6875 20.9999 25.6875C18.1001 25.6842 15.3201 24.5308 13.2696 22.4803C11.2191 20.4299 10.0657 17.6498 10.0624 14.75V14.75Z" fill="#F5F5F5"/>
</svg>
